<?xml version="1.0" encoding="UTF-8" standalone="no"?>
<!-- Created with Inkscape (http://www.inkscape.org/) -->

<svg
   xmlns:dc="http://purl.org/dc/elements/1.1/"
   xmlns:cc="http://creativecommons.org/ns#"
   xmlns:rdf="http://www.w3.org/1999/02/22-rdf-syntax-ns#"
   xmlns:svg="http://www.w3.org/2000/svg"
   xmlns="http://www.w3.org/2000/svg"
   xmlns:sodipodi="http://sodipodi.sourceforge.net/DTD/sodipodi-0.dtd"
   xmlns:inkscape="http://www.inkscape.org/namespaces/inkscape"
   width="210mm"
   height="297mm"
   viewBox="0 0 210 297"
   version="1.1"
   id="svg8"
   inkscape:version="0.92.4 (5da689c313, 2019-01-14)"
   sodipodi:docname="logo.svg">
  <defs
     id="defs2" />
  <sodipodi:namedview
     id="base"
     pagecolor="#ffffff"
     bordercolor="#666666"
     borderopacity="1.0"
     inkscape:pageopacity="0.0"
     inkscape:pageshadow="2"
     inkscape:zoom="0.35"
     inkscape:cx="400"
     inkscape:cy="560"
     inkscape:document-units="mm"
     inkscape:current-layer="layer1"
     showgrid="false"
     inkscape:window-width="834"
     inkscape:window-height="983"
     inkscape:window-x="844"
     inkscape:window-y="0"
     inkscape:window-maximized="0" />
  <metadata
     id="metadata5">
    <rdf:RDF>
      <cc:Work
         rdf:about="">
        <dc:format>image/svg+xml</dc:format>
        <dc:type
           rdf:resource="http://purl.org/dc/dcmitype/StillImage" />
        <dc:title></dc:title>
      </cc:Work>
    </rdf:RDF>
  </metadata>
  <g
     inkscape:label="Ebene 1"
     inkscape:groupmode="layer"
     id="layer1">
    <path
       style="fill:#000000;stroke-width:0.47367275"
       d="M 101.9379,231.42578 C 95.767572,228.43287 84.236346,220.03922 74.102164,211.16396 57.293689,196.44352 45.658816,182.27845 35.986816,164.75977 c -10.663,-19.31366 -15.80981,-36.99391 -17.22151,-59.15908 -0.25119,-3.94394 -0.29513,-9.467244 -0.0976,-12.274016 0.35083,-4.986184 0.39516,-5.1321 1.93332,-6.362465 0.86585,-0.692585 2.42903,-1.3921 3.47374,-1.554477 7.29845,-1.134386 19.77018,-4.496036 30.184569,-8.136 13.938368,-4.871642 33.945423,-14.560675 45.184463,-21.881967 4.488602,-2.92395 4.989932,-2.84293 13.531392,2.18678 21.12436,12.439223 46.00231,22.486075 66.18916,26.730191 7.52186,1.581409 8.02739,1.740762 9.26565,2.920747 1.05686,1.007118 1.2369,1.723776 1.54998,6.169941 0.40527,5.755274 -0.1575,16.172286 -1.30678,24.189106 -3.77505,26.33284 -14.43868,49.59897 -33.1918,72.41861 -12.09998,14.72378 -33.77323,33.26662 -47.58612,40.71292 -3.17603,1.71216 -3.74375,1.77941 -5.95733,0.70572 z m 7.13942,-12.50703 c 28.44078,-18.78559 51.95104,-47.0055 62.48244,-74.99911 5.57507,-14.81914 8.67445,-31.62067 8.26486,-44.803292 l -0.1597,-5.139819 -2.5031,-0.596243 C 152.39235,87.480162 128.17929,77.750656 107.13315,65.240741 l -2.77901,-1.651856 -5.398046,3.11059 C 77.19272,79.240507 56.511929,87.418053 31.481016,93.380301 l -2.5031,0.596228 -0.1597,5.139819 c -0.3651,11.750892 2.21355,27.305872 6.75018,40.718482 9.50363,28.09765 31.333557,55.8792 59.992149,76.34819 4.091993,2.92265 8.312095,5.66613 8.760875,5.69541 0.13767,0.009 2.27783,-1.32287 4.7559,-2.95968 z M 99.064894,205.92258 C 62.312513,181.65434 40.404356,144.45339 41.335066,107.89497 l 0.15838,-6.22104 7.75963,-1.879932 C 66.949482,95.506678 83.442055,88.74828 99.184102,79.333048 l 5.125418,-3.065486 5.63794,3.275905 c 15.94827,9.266689 33.47109,16.401243 50.19323,20.436571 l 7.0087,1.691312 0.16341,5.99824 c 0.42118,15.46011 -3.37611,31.91876 -10.79345,46.78216 -8.16031,16.35223 -21.52268,32.25468 -37.58256,44.72669 -5.99371,4.65468 -13.60958,9.71926 -14.61537,9.71926 -0.41301,0 -2.77845,-1.33881 -5.256526,-2.97512 z m 11.424376,-23.68186 c 3.86044,-0.90017 6.49228,-2.15632 9.22643,-4.40367 3.91205,-3.21554 4.10634,-3.95499 4.11896,-15.67654 0.0122,-11.35044 -0.10881,-11.87344 -3.24252,-14.01324 -1.51581,-1.03503 -1.7527,-1.45279 -1.7527,-3.09082 0,-1.73359 -0.86282,-4.50583 -2.53609,-8.1485 -0.63301,-1.37803 -0.59515,-1.45212 1.69524,-3.31819 1.28849,-1.04978 2.3415,-2.12978 2.34003,-2.39999 -0.005,-0.82181 -5.34697,-4.00931 -8.65105,-5.1615 -4.45435,-1.55331 -11.779822,-1.55331 -16.234168,0 -3.23525,1.12819 -8.646386,4.33382 -8.651051,5.12501 -0.0015,0.25013 1.004466,1.32859 2.235419,2.39656 l 2.238097,1.94177 -1.030298,1.80798 c -1.472257,2.58353 -2.43296,5.65534 -2.439237,7.79934 -0.0045,1.5868 -0.256033,2.02268 -1.758117,3.04834 -3.133714,2.1398 -3.25473,2.6628 -3.242519,14.01324 0.01261,11.72155 0.206901,12.461 4.118951,15.67654 4.293028,3.52868 9.000435,4.99761 16.165193,5.04431 2.5143,0.0164 5.80278,-0.26833 7.39943,-0.64064 z m -10.17282,-13.27063 c 0,-1.78691 -0.2742,-2.57995 -1.251556,-3.61979 -1.907963,-2.02994 -1.735404,-4.50466 0.450564,-6.46162 1.395382,-1.2492 2.081012,-1.52379 3.804722,-1.52379 1.72371,0 2.40934,0.27459 3.80472,1.52379 2.18596,1.95696 2.35852,4.43168 0.45056,6.46162 -0.97736,1.03984 -1.25156,1.83288 -1.25156,3.61979 v 2.28822 h -3.00372 -3.00373 z m -5.726354,-24.04206 c 0.485617,-3.01879 2.509364,-6.63738 4.380145,-7.83198 1.195969,-0.76369 2.287329,-1.01947 4.349939,-1.01947 2.0626,0 3.15397,0.25578 4.34993,1.01947 1.87078,1.1946 3.89453,4.81319 4.38015,7.83198 0.3281,2.03965 0.29149,2.12883 -0.87386,2.12883 -1.05245,0 -1.25475,-0.2566 -1.50163,-1.90474 -0.52958,-3.53539 -4.74539,-5.6191 -8.5155,-4.20887 -2.058036,0.76982 -3.841875,3.03455 -3.844678,4.88113 -0.0015,1.07576 -0.196754,1.23248 -1.53441,1.23248 H 94.247641 Z M 83.935828,124.57719 c 5.39452,-3.84667 12.854133,-6.20351 19.634662,-6.20351 6.81472,0 14.23976,2.357 19.70974,6.25665 l 2.68862,1.91676 2.68004,-2.40605 c 1.51912,-1.36382 2.52303,-2.61428 2.31759,-2.88674 -1.02893,-1.36462 -6.8351,-5.0206 -10.36606,-6.52722 -6.23447,-2.66018 -9.52989,-3.29846 -17.02993,-3.29846 -7.500042,0 -10.795462,0.63828 -17.029939,3.29846 -3.536244,1.50888 -9.351946,5.17232 -10.36194,6.52722 -0.282696,0.37924 4.33937,5.18652 4.986699,5.18652 0.08634,0 1.333074,-0.83863 2.770518,-1.86363 z m -10.685151,-9.70455 c 14.185971,-10.60583 33.345293,-13.00176 49.740683,-6.22021 4.07514,1.68558 7.28033,3.51484 10.89894,6.22021 1.25675,0.93958 2.50426,1.70834 2.77223,1.70834 0.26797,0 1.60515,-1.02619 2.97151,-2.28041 l 2.48429,-2.2804 -3.17893,-2.59732 c -6.1719,-5.0427 -15.44698,-9.16192 -24.35524,-10.816562 -6.0975,-1.13257 -15.929846,-1.13257 -22.027343,0 -8.90826,1.654642 -18.183346,5.773862 -24.355246,10.816562 l -3.178925,2.59732 2.484288,2.2804 c 1.366356,1.25422 2.703535,2.28041 2.971508,2.28041 0.267973,0 1.515481,-0.76876 2.772235,-1.70834 z"
       id="path3778"
       inkscape:connector-curvature="0" />
  </g>
</svg>
